<?xml version="1.0" encoding="utf-8"?>
<!-- Generator: Adobe Illustrator 24.3.0, SVG Export Plug-In . SVG Version: 6.00 Build 0)  -->
<svg version="1.1" id="Layer_1" xmlns="http://www.w3.org/2000/svg" xmlns:xlink="http://www.w3.org/1999/xlink" x="0px" y="0px"
	 viewBox="0 0 800 201.2" style="enable-background:new 0 0 800 201.2;" xml:space="preserve">
<g>
	<g>
		<path d="M34.93,168.42c-2.36,0-4.41-0.39-6.15-1.17c-1.74-0.78-3.07-1.86-3.99-3.24c-0.92-1.38-1.38-2.97-1.38-4.77
			c0-1.64,0.39-3.13,1.17-4.47c0.78-1.34,2.06-2.42,3.84-3.24c1.78-0.82,4.17-1.23,7.17-1.23h10.86v3.18H35.71
			c-3.04,0-5.15,0.54-6.33,1.62c-1.18,1.08-1.77,2.42-1.77,4.02c0,1.8,0.7,3.24,2.1,4.32c1.4,1.08,3.36,1.62,5.88,1.62
			c2.4,0,4.47-0.55,6.21-1.65c1.74-1.1,3.01-2.69,3.81-4.77l0.96,2.94c-0.8,2.08-2.19,3.74-4.17,4.98S37.93,168.42,34.93,168.42z
			 M45.79,168.12v-6.96l-0.18-1.14v-11.64c0-2.68-0.75-4.74-2.25-6.18c-1.5-1.44-3.73-2.16-6.69-2.16c-2.04,0-3.98,0.34-5.82,1.02
			c-1.84,0.68-3.4,1.58-4.68,2.7l-1.92-3.18c1.6-1.36,3.52-2.41,5.76-3.15c2.24-0.74,4.6-1.11,7.08-1.11c4.08,0,7.23,1.01,9.45,3.03
			c2.22,2.02,3.33,5.09,3.33,9.21v19.56H45.79z"/>
		<path d="M74.53,168.42c-3.12,0-5.91-0.69-8.37-2.07c-2.46-1.38-4.39-3.28-5.79-5.7c-1.4-2.42-2.1-5.19-2.1-8.31
			c0-3.16,0.7-5.94,2.1-8.34c1.4-2.4,3.33-4.28,5.79-5.64c2.46-1.36,5.25-2.04,8.37-2.04c2.68,0,5.1,0.52,7.26,1.56
			c2.16,1.04,3.86,2.6,5.1,4.68l-3.18,2.16c-1.08-1.6-2.42-2.78-4.02-3.54c-1.6-0.76-3.34-1.14-5.22-1.14
			c-2.24,0-4.26,0.51-6.06,1.53c-1.8,1.02-3.22,2.45-4.26,4.29c-1.04,1.84-1.56,4-1.56,6.48c0,2.48,0.52,4.64,1.56,6.48
			c1.04,1.84,2.46,3.27,4.26,4.29c1.8,1.02,3.82,1.53,6.06,1.53c1.88,0,3.62-0.38,5.22-1.14c1.6-0.76,2.94-1.92,4.02-3.48l3.18,2.16
			c-1.24,2.04-2.94,3.59-5.1,4.65C79.63,167.89,77.21,168.42,74.53,168.42z"/>
		<path d="M108.31,168.42c-3.12,0-5.91-0.69-8.37-2.07c-2.46-1.38-4.39-3.28-5.79-5.7c-1.4-2.42-2.1-5.19-2.1-8.31
			c0-3.16,0.7-5.94,2.1-8.34c1.4-2.4,3.33-4.28,5.79-5.64c2.46-1.36,5.25-2.04,8.37-2.04c2.68,0,5.1,0.52,7.26,1.56
			c2.16,1.04,3.86,2.6,5.1,4.68l-3.18,2.16c-1.08-1.6-2.42-2.78-4.02-3.54c-1.6-0.76-3.34-1.14-5.22-1.14
			c-2.24,0-4.26,0.51-6.06,1.53c-1.8,1.02-3.22,2.45-4.26,4.29c-1.04,1.84-1.56,4-1.56,6.48c0,2.48,0.52,4.64,1.56,6.48
			c1.04,1.84,2.46,3.27,4.26,4.29c1.8,1.02,3.82,1.53,6.06,1.53c1.88,0,3.62-0.38,5.22-1.14c1.6-0.76,2.94-1.92,4.02-3.48l3.18,2.16
			c-1.24,2.04-2.94,3.59-5.1,4.65C113.41,167.89,110.99,168.42,108.31,168.42z"/>
		<path d="M142.03,168.42c-2.68,0-5.02-0.5-7.02-1.5c-2-1-3.55-2.5-4.65-4.5c-1.1-2-1.65-4.5-1.65-7.5v-18.3h4.26v17.82
			c0,3.36,0.83,5.89,2.49,7.59c1.66,1.7,3.99,2.55,6.99,2.55c2.2,0,4.11-0.45,5.73-1.35c1.62-0.9,2.86-2.21,3.72-3.93
			c0.86-1.72,1.29-3.78,1.29-6.18v-16.5h4.26v31.5h-4.08v-8.64l0.66,1.56c-1,2.32-2.55,4.13-4.65,5.43
			C147.28,167.77,144.83,168.42,142.03,168.42z"/>
		<path d="M169.33,168.12v-31.5h4.08v8.58l-0.42-1.5c0.88-2.4,2.36-4.23,4.44-5.49c2.08-1.26,4.66-1.89,7.74-1.89v4.14
			c-0.16,0-0.32-0.01-0.48-0.03c-0.16-0.02-0.32-0.03-0.48-0.03c-3.32,0-5.92,1.01-7.8,3.03c-1.88,2.02-2.82,4.89-2.82,8.61v16.08
			H169.33z"/>
		<path d="M202.27,168.42c-2.36,0-4.41-0.39-6.15-1.17c-1.74-0.78-3.07-1.86-3.99-3.24c-0.92-1.38-1.38-2.97-1.38-4.77
			c0-1.64,0.39-3.13,1.17-4.47c0.78-1.34,2.06-2.42,3.84-3.24c1.78-0.82,4.17-1.23,7.17-1.23h10.86v3.18h-10.74
			c-3.04,0-5.15,0.54-6.33,1.62c-1.18,1.08-1.77,2.42-1.77,4.02c0,1.8,0.7,3.24,2.1,4.32c1.4,1.08,3.36,1.62,5.88,1.62
			c2.4,0,4.47-0.55,6.21-1.65c1.74-1.1,3.01-2.69,3.81-4.77l0.96,2.94c-0.8,2.08-2.19,3.74-4.17,4.98S205.27,168.42,202.27,168.42z
			 M213.13,168.12v-6.96l-0.18-1.14v-11.64c0-2.68-0.75-4.74-2.25-6.18c-1.5-1.44-3.73-2.16-6.69-2.16c-2.04,0-3.98,0.34-5.82,1.02
			c-1.84,0.68-3.4,1.58-4.68,2.7l-1.92-3.18c1.6-1.36,3.52-2.41,5.76-3.15c2.24-0.74,4.6-1.11,7.08-1.11c4.08,0,7.23,1.01,9.45,3.03
			c2.22,2.02,3.33,5.09,3.33,9.21v19.56H213.13z"/>
		<path d="M241.86,168.42c-3.12,0-5.91-0.69-8.37-2.07c-2.46-1.38-4.39-3.28-5.79-5.7c-1.4-2.42-2.1-5.19-2.1-8.31
			c0-3.16,0.7-5.94,2.1-8.34c1.4-2.4,3.33-4.28,5.79-5.64c2.46-1.36,5.25-2.04,8.37-2.04c2.68,0,5.1,0.52,7.26,1.56
			c2.16,1.04,3.86,2.6,5.1,4.68l-3.18,2.16c-1.08-1.6-2.42-2.78-4.02-3.54c-1.6-0.76-3.34-1.14-5.22-1.14
			c-2.24,0-4.26,0.51-6.06,1.53c-1.8,1.02-3.22,2.45-4.26,4.29c-1.04,1.84-1.56,4-1.56,6.48c0,2.48,0.52,4.64,1.56,6.48
			c1.04,1.84,2.46,3.27,4.26,4.29c1.8,1.02,3.82,1.53,6.06,1.53c1.88,0,3.62-0.38,5.22-1.14c1.6-0.76,2.94-1.92,4.02-3.48l3.18,2.16
			c-1.24,2.04-2.94,3.59-5.1,4.65C246.97,167.89,244.54,168.42,241.86,168.42z"/>
		<path d="M262.8,180.06c-1.48,0-2.89-0.24-4.23-0.72c-1.34-0.48-2.49-1.2-3.45-2.16l1.98-3.18c0.8,0.76,1.67,1.35,2.61,1.77
			c0.94,0.42,1.99,0.63,3.15,0.63c1.4,0,2.61-0.39,3.63-1.17c1.02-0.78,1.99-2.15,2.91-4.11l2.04-4.62l0.48-0.66l12.96-29.22h4.2
			L273.3,171.9c-0.88,2.04-1.85,3.66-2.91,4.86c-1.06,1.2-2.21,2.05-3.45,2.55C265.7,179.81,264.32,180.06,262.8,180.06z
			 M271.2,169.02l-14.52-32.4h4.44l12.84,28.92L271.2,169.02z"/>
	</g>
</g>
<g>
	<g>
		<path d="M340.26,54.2c10.35,0,19.28,2.11,26.8,6.32c7.52,4.22,13.28,10.46,17.28,18.72c4,8.27,6,18.38,6,30.32
			c0,13.02-2.43,24-7.28,32.96c-4.86,8.96-11.55,15.79-20.08,20.48c-8.54,4.7-18.46,7.04-29.76,7.04c-5.87,0-11.52-0.67-16.96-2
			c-5.44-1.33-10.13-3.23-14.08-5.68l9.44-19.04c3.09,2.13,6.42,3.6,10,4.4c3.57,0.8,7.28,1.2,11.12,1.2
			c9.6,0,17.25-2.96,22.96-8.88c5.71-5.92,8.56-14.58,8.56-26c0-1.92-0.05-4.05-0.16-6.4c-0.11-2.35-0.38-4.69-0.8-7.04l7.04,6.72
			c-1.81,4.16-4.38,7.65-7.68,10.48c-3.31,2.83-7.15,4.96-11.52,6.4c-4.38,1.44-9.28,2.16-14.72,2.16c-7.15,0-13.63-1.44-19.44-4.32
			c-5.82-2.88-10.46-6.93-13.92-12.16c-3.47-5.22-5.2-11.36-5.2-18.4c0-7.57,1.89-14.16,5.68-19.76c3.79-5.6,8.91-9.92,15.36-12.96
			C325.35,55.72,332.47,54.2,340.26,54.2z M341.86,73.56c-3.74,0-7.02,0.67-9.84,2c-2.83,1.33-5.02,3.25-6.56,5.76
			c-1.55,2.51-2.32,5.47-2.32,8.88c0,5.12,1.73,9.2,5.2,12.24c3.46,3.04,8.08,4.56,13.84,4.56c3.84,0,7.2-0.75,10.08-2.24
			c2.88-1.49,5.12-3.49,6.72-6c1.6-2.51,2.4-5.41,2.4-8.72c0-3.09-0.75-5.89-2.24-8.4c-1.5-2.5-3.71-4.48-6.64-5.92
			C349.56,74.28,346.02,73.56,341.86,73.56z"/>
		<path d="M449.21,170.04c-9.5,0-17.73-1.39-24.72-4.16c-6.99-2.77-12.46-6.75-16.4-11.92c-3.95-5.17-5.92-11.28-5.92-18.32
			c0-6.93,1.92-12.8,5.76-17.6c3.84-4.8,9.3-8.48,16.4-11.04c7.09-2.56,15.38-3.84,24.88-3.84c9.6,0,17.92,1.28,24.96,3.84
			s12.51,6.27,16.4,11.12c3.89,4.85,5.84,10.69,5.84,17.52c0,7.04-1.95,13.15-5.84,18.32c-3.89,5.17-9.39,9.15-16.48,11.92
			C467,168.65,458.71,170.04,449.21,170.04z M449.21,116.28c-8.64,0-16.19-1.17-22.64-3.52c-6.46-2.35-11.47-5.79-15.04-10.32
			c-3.58-4.53-5.36-10-5.36-16.4c0-6.5,1.81-12.13,5.44-16.88c3.62-4.75,8.69-8.42,15.2-11.04c6.5-2.61,13.97-3.92,22.4-3.92
			c8.64,0,16.19,1.31,22.64,3.92c6.45,2.62,11.49,6.29,15.12,11.04c3.62,4.75,5.44,10.38,5.44,16.88c0,6.4-1.76,11.87-5.28,16.4
			c-3.52,4.54-8.53,7.98-15.04,10.32C465.59,115.1,457.96,116.28,449.21,116.28z M449.21,151c6.5,0,11.65-1.44,15.44-4.32
			c3.79-2.88,5.68-6.88,5.68-12c0-4.8-1.89-8.64-5.68-11.52c-3.79-2.88-8.94-4.32-15.44-4.32c-6.4,0-11.5,1.44-15.28,4.32
			c-3.79,2.88-5.68,6.72-5.68,11.52c0,5.12,1.89,9.12,5.68,12C437.72,149.56,442.82,151,449.21,151z M449.21,101.08
			c5.44,0,9.73-1.23,12.88-3.68c3.15-2.45,4.72-5.86,4.72-10.24c0-4.37-1.63-7.79-4.88-10.24c-3.25-2.45-7.5-3.68-12.72-3.68
			c-5.12,0-9.28,1.23-12.48,3.68c-3.2,2.46-4.8,5.92-4.8,10.4c0,4.27,1.54,7.63,4.64,10.08
			C439.67,99.85,443.88,101.08,449.21,101.08z"/>
		<path d="M509.21,192.76l10.56-38.4l3.52,14.56c-4.48,0-8.19-1.36-11.12-4.08c-2.93-2.72-4.4-6.37-4.4-10.96
			c0-4.8,1.49-8.61,4.48-11.44c2.99-2.82,6.67-4.24,11.04-4.24c4.48,0,8.16,1.44,11.04,4.32s4.32,6.67,4.32,11.36
			c0,1.28-0.11,2.59-0.32,3.92c-0.21,1.33-0.62,2.91-1.2,4.72c-0.59,1.82-1.52,4.22-2.8,7.2l-9.12,23.04H509.21z"/>
		<path d="M568.25,168.12l45.12-102.08l6.72,11.2h-60.16l11.2-12.16v30.56h-22.88V56.12h89.76v16.8l-41.6,95.2H568.25z"/>
		<path d="M675.29,116.6c-5.33,0-10.08-1.25-14.24-3.76c-4.16-2.51-7.42-6.08-9.76-10.72c-2.35-4.64-3.52-10.1-3.52-16.4
			c0-6.29,1.17-11.76,3.52-16.4c2.34-4.64,5.6-8.21,9.76-10.72c4.16-2.5,8.91-3.76,14.24-3.76c5.54,0,10.4,1.25,14.56,3.76
			c4.16,2.51,7.41,6.06,9.76,10.64c2.34,4.59,3.52,10.08,3.52,16.48c0,6.29-1.17,11.76-3.52,16.4c-2.35,4.64-5.6,8.21-9.76,10.72
			C685.69,115.34,680.84,116.6,675.29,116.6z M675.45,103.48c3.52,0,6.32-1.46,8.4-4.4c2.08-2.93,3.12-7.38,3.12-13.36
			c0-5.97-1.04-10.43-3.12-13.36c-2.08-2.93-4.88-4.4-8.4-4.4c-3.52,0-6.35,1.5-8.48,4.48c-2.13,2.99-3.2,7.42-3.2,13.28
			c0,5.87,1.06,10.29,3.2,13.28C669.1,101.98,671.93,103.48,675.45,103.48z M665.69,168.12l76.48-112h19.04l-76.48,112H665.69z
			 M751.45,169.4c-5.33,0-10.11-1.25-14.32-3.76c-4.21-2.5-7.47-6.08-9.76-10.72c-2.29-4.64-3.44-10.11-3.44-16.4
			c0-6.29,1.15-11.76,3.44-16.4c2.29-4.64,5.54-8.21,9.76-10.72c4.21-2.5,8.99-3.76,14.32-3.76c5.54,0,10.4,1.25,14.56,3.76
			c4.16,2.51,7.41,6.08,9.76,10.72c2.34,4.64,3.52,10.11,3.52,16.4c0,6.29-1.17,11.76-3.52,16.4c-2.35,4.64-5.6,8.21-9.76,10.72
			S757,169.4,751.45,169.4z M751.45,156.28c3.52,0,6.37-1.49,8.56-4.48c2.19-2.99,3.28-7.41,3.28-13.28
			c0-5.86-1.09-10.29-3.28-13.28c-2.19-2.99-5.04-4.48-8.56-4.48c-3.42,0-6.21,1.47-8.4,4.4c-2.19,2.93-3.28,7.39-3.28,13.36
			c0,5.98,1.09,10.43,3.28,13.36C745.24,154.81,748.04,156.28,751.45,156.28z"/>
	</g>
</g>
</svg>
